# AST/ASF file generated using VICON BodyLanguage
# -----------------------------------------------
:version 1.10
:name VICON
:units
  mass 1.0
  length 0.45
  angle deg
:documentation
   .ast/.asf automatically generated from VICON data using
   VICON BodyBuilder and BodyLanguage model FoxedUp or BRILLIANT.MOD
:root
   order TX TY TZ RX RY RZ
   axis XYZ
   position 0 0 0  
   orientation 0 0 0 
:bonedata
  begin
     id 1 
     name lhipjoint
     direction 0.576517 -0.752066 0.319413 
     length 2.45433 
     axis 0 0 0  XYZ
  end
  begin
     id 2 
     name lfemur
     direction 0.34202 -0.939693 0  
     length 7.54459  
     axis 0 0 20  XYZ
    dof rx ry rz
    limits (-160.0 20.0)
           (-70.0 70.0)
           (-60.0 70.0)
  end
  begin
     id 3 
     name ltibia
     direction 0.34202 -0.939693 0   
     length 7.73986   
     axis 0 0 20   XYZ
    dof rx
    limits (-10.0 170.0)
  end
  begin
     id 4 
     name lfoot
     direction 0.090693 -0.249177 0.964202   
     length 2.28437   
     axis -90 7.62852e-016 20   XYZ
    dof rx rz
    limits (-45.0 90.0)
           (-70.0 20.0)
  end
  begin
     id 5 
     name ltoes
     direction 1.5356e-011 -4.21928e-011 1   
     length 1.14243   
     axis -90 7.62852e-016 20   XYZ
    dof rx
    limits (-90.0 20.0)
  end
  begin
     id 6 
     name rhipjoint
     direction -0.573937 -0.753736 0.320122   
     length 2.44889  
     axis 0 0 0  XYZ 
  end
  begin
     id 7 
     name rfemur
     direction -0.34202 -0.939693 0   
     length 7.50166   
     axis 0 0 -20   XYZ
    dof rx ry rz
    limits (-160.0 20.0)
           (-70.0 70.0)
           (-70.0 60.0)
  end
  begin
     id 8 
     name rtibia
     direction -0.34202 -0.939693 0   
     length 7.54266   
     axis 0 0 -20   XYZ
    dof rx
    limits (-10.0 170.0)
 end
 begin
     id 9 
     name rfoot
     direction -0.114017 -0.31326 0.942798   
     length 2.34212  
     axis -90 -7.62852e-016 -20   XYZ
    dof rx rz
    limits (-45.0 90.0)
           (-20.0 70.0)
  end
  begin
     id 10 
     name rtoes
     direction -1.53557e-011 -4.21867e-011 1   
     length 1.16246   
     axis -90 -7.62852e-016 -20   XYZ
    dof rx
    limits (-90.0 20.0)
  end
  begin
     id 11 
     name lowerback
     direction -0.0228371 0.999155 -0.034167   
     length 2.0537   
     axis 0 0 0   XYZ
    dof rx ry rz
    limits (-20.0 45.0)
           (-30.0 30.0)
           (-30.0 30.0)
  end
  begin
     id 12 
     name upperback
     direction 0.0198981 0.999794 0.00389455   
     length 2.05302   
     axis 0 0 0   XYZ
    dof rx ry rz
    limits (-20.0 45.0)
           (-30.0 30.0)
           (-30.0 30.0)
  end
  begin
     id 13 
     name thorax
     direction 0.0304566 0.99935 0.0192987   
     length 2.05315   
     axis 0 0 0   XYZ
    dof rx ry rz
    limits (-20.0 45.0)
           (-30.0 30.0)
           (-30.0 30.0)
  end
  begin
     id 14 
     name lowerneck
     direction -0.0196762 0.99417 0.106017   
     length 1.82056   
     axis 0 0 0   XYZ
    dof rx ry rz
    limits (-20.0 45.0)
           (-30.0 30.0)
           (-30.0 30.0)
  end
  begin
     id 15 
     name upperneck
     direction 0.00517787 0.9802 -0.197944   
     length 1.83835   
     axis 0 0 0   XYZ
    dof rx ry rz
    limits (-20.0 45.0)
           (-30.0 30.0)
           (-30.0 30.0)
  end
  begin
     id 16
     name head
     direction 0.00211419 0.996945 -0.078081  
     length 1.85629  
     axis 0 0 0   XYZ
    dof rx ry rz
    limits (-20.0 45.0)
           (-30.0 30.0)
           (-30.0 30.0)
  end
  begin
     id 17 
     name lclavicle
     direction 0.930001 0.365811 -0.0357824  
     length 3.81961  
     axis 0 0 0   XYZ
    dof ry rz
    limits (-20.0 10.0)
           (0.0 20.0)
  end
  begin
     id 18 
     name lhumerus
     direction 1 -4.48968e-011 -3.06644e-027   
     length 5.14507   
     axis 180 -30 -90   XYZ
    dof rx ry rz
    limits (-60.0 90.0)
           (-90.0 90.0)
           (-90.0 90.0)
  end
  begin
     id 19
     name lradius
     direction 1 -4.48965e-011 9.06925e-028   
     length 3.50646   
     axis 180 -30 -90   XYZ
    dof rx
    limits (-10.0 170.0)
  end
  begin
     id 20
     name lwrist
     direction 1 -4.48957e-011 1.03922e-027   
     length 1.75323   
     axis -2.56395e-016 90 90   XYZ
    dof ry
    limits (-180.0 0.0)
 end
  begin
     id 21 
     name lhand
     direction 1 -4.48967e-011 2.08017e-027   
     length 0.629969   
     axis -1.32723e-015 90 90   XYZ
    dof rx rz
    limits (-90.0 90.0)
           (-45.0 45.0)
  end
  begin
     id 22 
     name lfingers
     direction 1 -4.49089e-011 4.20095e-027   
     length 0.507897   
     axis -2.6545e-015 90 90   XYZ
    dof rx
    limits (0.0 90.0)
  end
  begin
     id 23
     name lthumb
     direction 0.707107 -6.35001e-011 0.707107   
     length 0.729241   
     axis -90 45 5.05613e-014   XYZ
    dof rx rz
    limits (-45.0 45.0)
           (-45.0 45.0)
  end
  begin
     id 24 
     name rclavicle
     direction -0.881882 0.464123 -0.0829113   
     length 3.47515  
     axis 0 0 0   XYZ 
    dof ry rz
    limits (-10.0 20.0)
           (-20.0 0.0)
  end
  begin
     id 25 
     name rhumerus
     direction -1 -4.48961e-011 -1.55672e-027  
     length 5.232   
     axis 180 30 90   XYZ
    dof rx ry rz
    limits (-90.0 60.0)
           (-90.0 90.0)
           (-90.0 90.0)
  end
  begin
     id 26 
     name rradius
     direction -1 -4.48963e-011 6.18178e-029   
     length 3.65641   
     axis 180 30 90   XYZ
    dof rx
    limits (-10.0 170.0)
  end
  begin
     id 27 
     name rwrist
     direction -1 -4.48982e-011 1.04136e-027   
     length 1.8282   
     axis -2.56395e-016 -90 -90   XYZ
    dof ry
    limits (-180.0 0.0)
  end
  begin
     id 28
     name rhand
     direction -1 -4.48929e-011 2.07378e-027   
     length 0.656807   
     axis -1.32723e-015 -90 -90   XYZ
    dof rx rz
    limits (-90.0 90.0)
           (-45.0 45.0)
  end
  begin
     id 29
     name rfingers
     direction -1 -4.489e-011 4.13816e-027   
     length 0.529535   
     axis -2.6545e-015 -90 -90   XYZ
    dof rx
    limits (0.0 90.0)
  end
  begin
     id 30
     name rthumb
     direction -0.707107 -6.34843e-011 0.707107   
     length 0.760309   
     axis -90 -45 -5.05613e-014   XYZ
    dof rx rz
    limits (-45.0 45.0)
           (-45.0 45.0)
  end
:hierarchy
  begin
    root lhipjoint rhipjoint lowerback
    lhipjoint lfemur
    lfemur ltibia
    ltibia lfoot
    lfoot ltoes
    rhipjoint rfemur
    rfemur rtibia
    rtibia rfoot
    rfoot rtoes
    lowerback upperback
    upperback thorax
    thorax lowerneck lclavicle rclavicle
    lowerneck upperneck
    upperneck head
    lclavicle lhumerus
    lhumerus lradius
    lradius lwrist
    lwrist lhand lthumb
    lhand lfingers
    rclavicle rhumerus
    rhumerus rradius
    rradius rwrist
    rwrist rhand rthumb
    rhand rfingers
  end

#!OML:ASF H:\ManfredETheater\Project 1\Capture day 1\Session 1\subject.ASF
:FULLY-SPECIFIED
:DEGREES
56
root 1.90708 17.9037 -4.33048 5.99682 2.75383 1.06466
lowerback -2.45457 -0.675014 -3.17924
upperback -2.62068 -0.852098 0.499632
thorax -1.26089 -0.370759 2.28336
lowerneck -21.3155 -3.58429 -5.00024
upperneck 16.8641 -4.41946 4.87939
head 9.01788 -1.85512 1.87847
rclavicle -2.96469e-015 2.23633e-014
rhumerus -17.6022 -23.2417 -1.66729
rradius 24.149
rwrist 7.17195
rhand -20.411 -18.6799
rfingers 7.12502
rthumb 5.94307 -48.5765
lclavicle -2.96469e-015 2.23633e-014
lhumerus -11.8875 26.2736 7.86174
lradius 24.1218
lwrist -20.2372
lhand -13.83 13.14
lfingers 7.12502
lthumb 12.293 42.7586
rfemur -8.92278 -0.679192 9.15353
rtibia 26.8629
rfoot -17.5804 -17.8989
rtoes 1.73738
lfemur -12.6248 -3.38677 -13.3787
ltibia 31.0773
lfoot -17.5782 10.7194
ltoes -9.60769
57
root 1.90582 17.9039 -4.33324 6.00277 2.76008 1.06349
lowerback -2.43828 -0.675248 -3.17964
upperback -2.61453 -0.852895 0.498568
thorax -1.26364 -0.371194 2.28263
lowerneck -21.3217 -3.58799 -5.00376
upperneck 16.8587 -4.4232 4.88072
head 9.01742 -1.85688 1.87889
rclavicle 1.17019e-014 -1.2921e-015
rhumerus -17.6014 -23.2219 -1.67646
rradius 24.162
rwrist 7.15182
rhand -20.4064 -18.6771
rfingers 7.12502
rthumb 5.9475 -48.5736
lclavicle 1.17019e-014 -1.2921e-015
lhumerus -11.8837 26.2183 7.88367
lradius 24.1304
lwrist -20.2224
lhand -13.8298 13.1448
lfingers 7.12502
lthumb 12.2932 42.7634
rfemur -8.94156 -0.69344 9.15864
rtibia 26.8701
rfoot -17.5772 -17.8909
rtoes 1.74142
lfemur -12.6427 -3.39327 -13.3711
ltibia 31.0754
lfoot -17.5719 10.7186
ltoes -9.5965
58
root 1.90453 17.904 -4.33608 6.00867 2.76469 1.06192
lowerback -2.42201 -0.675221 -3.18063
upperback -2.60686 -0.853312 0.497478
thorax -1.26483 -0.371478 2.28219
lowerneck -21.3296 -3.59123 -5.00565
upperneck 16.853 -4.42629 4.88011
head 9.01702 -1.85842 1.87846
rclavicle -5.90841e-015 1.28216e-014
rhumerus -17.6001 -23.2034 -1.68717
rradius 24.1746
rwrist 7.13317
rhand -20.4026 -18.6741
rfingers 7.12502
rthumb 5.95117 -48.5705
lclavicle -5.90841e-015 1.28216e-014
lhumerus -11.8795 26.1687 7.90515
lradius 24.1386
lwrist -20.2104
lhand -13.8306 13.1555
lfingers 7.12502
lthumb 12.2925 42.7742
rfemur -8.96189 -0.707546 9.1641
rtibia 26.8784
rfoot -17.5733 -17.8818
rtoes 1.7443
lfemur -12.6607 -3.3998 -13.3632
ltibia 31.0739
lfoot -17.5653 10.7193
ltoes -9.58442
59
root 1.9032 17.9042 -4.339 6.01432 2.76811 1.05958
lowerback -2.40571 -0.674962 -3.18152
upperback -2.5979 -0.853407 0.496254
thorax -1.26474 -0.371642 2.28157
lowerneck -21.3376 -3.59406 -5.00589
upperneck 16.8465 -4.4289 4.87774
head 9.01622 -1.85982 1.87721
rclavicle 2.86335e-015 -2.18663e-015
rhumerus -17.5989 -23.1869 -1.69927
rradius 24.1871
rwrist 7.11702
rhand -20.3994 -18.6716
rfingers 7.12502
rthumb 5.9542 -48.5679
lclavicle 2.86335e-015 -2.18663e-015
lhumerus -11.8744 26.1255 7.92639
lradius 24.1464
lwrist -20.2012
lhand -13.8325 13.1721
lfingers 7.12502
lthumb 12.2906 42.7909
rfemur -8.98326 -0.722093 9.17029
rtibia 26.8873
rfoot -17.5684 -17.8714
rtoes 1.7455
lfemur -12.6786 -3.40615 -13.3545
ltibia 31.0727
lfoot -17.5582 10.721
ltoes -9.57246
